<?xml version="1.0" encoding="UTF-8" standalone="no"?>
<svg
   xmlns:dc="http://purl.org/dc/elements/1.1/"
   xmlns:cc="http://creativecommons.org/ns#"
   xmlns:rdf="http://www.w3.org/1999/02/22-rdf-syntax-ns#"
   xmlns:svg="http://www.w3.org/2000/svg"
   xmlns="http://www.w3.org/2000/svg"
   xmlns:sodipodi="http://sodipodi.sourceforge.net/DTD/sodipodi-0.dtd"
   xmlns:inkscape="http://www.inkscape.org/namespaces/inkscape"
   width="512"
   height="512"
   version="1.1"
   id="svg3735"
   sodipodi:docname="plug.svg"
   inkscape:export-filename="C:\Users\sorfj\OneDrive - Ørsted\Desktop\plug.png"
   inkscape:export-xdpi="0.77999997"
   inkscape:export-ydpi="0.77999997"
   inkscape:version="0.92.4 (5da689c313, 2019-01-14)">
  <defs
     id="defs3739" />
  <sodipodi:namedview
     pagecolor="#00c200"
     bordercolor="#666666"
     borderopacity="1"
     objecttolerance="10"
     gridtolerance="10"
     guidetolerance="10"
     inkscape:pageopacity="0.72941176"
     inkscape:pageshadow="2"
     inkscape:window-width="1851"
     inkscape:window-height="1057"
     id="namedview3737"
     showgrid="false"
     fit-margin-top="0"
     fit-margin-left="0"
     fit-margin-right="0"
     fit-margin-bottom="0"
     inkscape:zoom="1.2685676"
     inkscape:cx="277.3305"
     inkscape:cy="244.12899"
     inkscape:window-x="61"
     inkscape:window-y="-8"
     inkscape:window-maximized="1"
     inkscape:current-layer="svg3735"
     inkscape:pagecheckerboard="false" />
  <title
     id="title3727">Electrical Plug</title>
  <metadata
     id="metadata7">image/svg+xmlSergio Luiz Araujo Silvaoutletelectricityenergypowerhomeoffice<rdf:RDF>
  <cc:Work
     rdf:about="">
    <dc:format>image/svg+xml</dc:format>
    <dc:type
       rdf:resource="http://purl.org/dc/dcmitype/StillImage" />
    <dc:title>Electrical Plug</dc:title>
  </cc:Work>
</rdf:RDF>
</metadata>
  <path
     style="fill:#ffffff;fill-opacity:1;stroke:#080000;stroke-width:2.56571627;stroke-miterlimit:4;stroke-dasharray:none;stroke-opacity:1"
     inkscape:connector-curvature="0"
     id="path2821"
     d="m 343.51565,142.77331 c -4.10771,-5.17833 -11.59062,-6.04166 -16.76952,-1.93454 l -38.05727,30.18432 -18.60787,-23.46145 c -1.29696,-1.64283 -3.97608,-1.95143 -5.61391,-0.64764 l -36.25844,28.75791 C 197.41285,200.097 188.80604,241.9777 205.3068,275.88839 l -59.97637,47.56966 c -7.76642,6.16028 -9.05877,17.3622 -2.89905,25.12863 6.15967,7.76642 17.36256,9.05954 25.12886,2.89927 l 59.97632,-47.56968 c 29.26314,23.78931 72.004,24.94518 102.79901,0.51957 l 36.2587,-28.75784 c 1.64333,-1.29697 1.95122,-3.97686 0.64783,-5.61379 l -18.60785,-23.46193 38.05728,-30.18424 c 5.17761,-4.10707 6.04097,-11.5905 1.93454,-16.76889 -4.10771,-5.17838 -11.59062,-6.04161 -16.76952,-1.93455 l -38.05727,30.18425 -30.27545,-38.17246 38.05727,-30.18425 c 5.17762,-4.10706 6.04098,-11.59061 1.93455,-16.7689 z" />
  <rect
     style="fill:#00c000;fill-opacity:1;stroke:none;stroke-width:20;stroke-miterlimit:4;stroke-dasharray:none;stroke-opacity:1"
     id="rect4583"
     width="512"
     height="512"
     x="0"
     y="0" />
  <path
     style="fill:#ffffff;fill-opacity:1;stroke:#080000;stroke-width:2.56571627;stroke-miterlimit:4;stroke-dasharray:none;stroke-opacity:1"
     inkscape:connector-curvature="0"
     id="path2821-4"
     d="m 343.51565,142.77331 c -4.10771,-5.17833 -11.59062,-6.04166 -16.76952,-1.93454 l -38.05727,30.18432 -18.60787,-23.46145 c -1.29696,-1.64283 -3.97608,-1.95143 -5.61391,-0.64764 l -36.25844,28.75791 C 197.41285,200.097 188.80604,241.9777 205.3068,275.88839 l -59.97637,47.56966 c -7.76642,6.16028 -9.05877,17.3622 -2.89905,25.12863 6.15967,7.76642 17.36256,9.05954 25.12886,2.89927 l 59.97632,-47.56968 c 29.26314,23.78931 72.004,24.94518 102.79901,0.51957 l 36.2587,-28.75784 c 1.64333,-1.29697 1.95122,-3.97686 0.64783,-5.61379 l -18.60785,-23.46193 38.05728,-30.18424 c 5.17761,-4.10707 6.04097,-11.5905 1.93454,-16.76889 -4.10771,-5.17838 -11.59062,-6.04161 -16.76952,-1.93455 l -38.05727,30.18425 -30.27545,-38.17246 38.05727,-30.18425 c 5.17762,-4.10706 6.04098,-11.59061 1.93455,-16.7689 z" />
</svg>
